<svg xmlns="http://www.w3.org/2000/svg" viewBox="0 0 1080 1920" width="1080" height="1920">
  <defs>
    <style>
      .title { font-family: 'Inter', 'Helvetica Neue', sans-serif; font-size: 44px; font-weight: 700; fill: #e8e8e8; }
      .subtitle { font-family: 'Inter', 'Helvetica Neue', sans-serif; font-size: 20px; font-weight: 400; fill: #888888; }
      .node-label { font-family: 'Inter', 'Helvetica Neue', sans-serif; font-size: 16px; font-weight: 600; fill: #1a1a1a; }
      .branch-label { font-family: 'Inter', 'Helvetica Neue', sans-serif; font-size: 14px; font-weight: 500; fill: #00d4aa; }
      .decision-text { font-family: 'Inter', 'Helvetica Neue', sans-serif; font-size: 13px; font-weight: 400; fill: #e8e8e8; }
      .day-type { font-family: 'Inter', 'Helvetica Neue', sans-serif; font-size: 15px; font-weight: 700; fill: #1a1a1a; }
      .stat { font-family: 'JetBrains Mono', monospace; font-size: 12px; fill: #888888; }
      .footer { font-family: 'Inter', 'Helvetica Neue', sans-serif; font-size: 16px; font-weight: 500; fill: #666666; }
    </style>
  </defs>

  <!-- Background -->
  <rect width="1080" height="1920" fill="#1a1a1a"/>

  <!-- Title -->
  <text x="540" y="90" text-anchor="middle" class="title">Day Type Decision Tree</text>
  <text x="540" y="125" text-anchor="middle" class="subtitle">Identify the day type before your first trade</text>

  <!-- ROOT NODE -->
  <g transform="translate(540, 200)">
    <rect x="-200" y="-30" width="400" height="60" rx="8" fill="#00d4aa"/>
    <text x="0" y="8" text-anchor="middle" class="node-label">Where did price open relative to</text>
    <text x="0" y="26" text-anchor="middle" class="node-label">yesterday's Value Area?</text>
  </g>

  <!-- LEVEL 1 BRANCHES -->
  <!-- Lines from root to level 1 -->
  <line x1="380" y1="230" x2="180" y2="320" stroke="#00d4aa" stroke-width="2"/>
  <line x1="540" y1="230" x2="540" y2="320" stroke="#00d4aa" stroke-width="2"/>
  <line x1="700" y1="230" x2="900" y2="320" stroke="#00d4aa" stroke-width="2"/>

  <!-- Branch labels -->
  <text x="260" y="275" text-anchor="middle" class="branch-label">Above VA</text>
  <text x="540" y="275" text-anchor="middle" class="branch-label">Inside VA</text>
  <text x="820" y="275" text-anchor="middle" class="branch-label">Below VA</text>

  <!-- LEVEL 1 NODES: IB Width -->
  <g transform="translate(180, 360)">
    <rect x="-120" y="-30" width="240" height="50" rx="6" fill="#2a2a2a" stroke="#00d4aa" stroke-width="2"/>
    <text x="0" y="0" text-anchor="middle" class="decision-text">How wide is the</text>
    <text x="0" y="16" text-anchor="middle" class="decision-text">Initial Balance?</text>
  </g>

  <g transform="translate(540, 360)">
    <rect x="-120" y="-30" width="240" height="50" rx="6" fill="#2a2a2a" stroke="#00d4aa" stroke-width="2"/>
    <text x="0" y="0" text-anchor="middle" class="decision-text">How wide is the</text>
    <text x="0" y="16" text-anchor="middle" class="decision-text">Initial Balance?</text>
  </g>

  <g transform="translate(900, 360)">
    <rect x="-120" y="-30" width="240" height="50" rx="6" fill="#2a2a2a" stroke="#00d4aa" stroke-width="2"/>
    <text x="0" y="0" text-anchor="middle" class="decision-text">How wide is the</text>
    <text x="0" y="16" text-anchor="middle" class="decision-text">Initial Balance?</text>
  </g>

  <!-- LEVEL 2 BRANCHES from left node -->
  <line x1="110" y1="380" x2="80" y2="470" stroke="#444444" stroke-width="1.5"/>
  <line x1="250" y1="380" x2="280" y2="470" stroke="#444444" stroke-width="1.5"/>
  <text x="70" y="430" text-anchor="middle" class="branch-label" font-size="12">Narrow</text>
  <text x="290" y="430" text-anchor="middle" class="branch-label" font-size="12">Wide</text>

  <!-- LEVEL 2 BRANCHES from middle node -->
  <line x1="470" y1="380" x2="440" y2="470" stroke="#444444" stroke-width="1.5"/>
  <line x1="540" y1="380" x2="540" y2="470" stroke="#444444" stroke-width="1.5"/>
  <line x1="610" y1="380" x2="640" y2="470" stroke="#444444" stroke-width="1.5"/>
  <text x="430" y="430" text-anchor="middle" class="branch-label" font-size="12">Narrow</text>
  <text x="540" y="430" text-anchor="middle" class="branch-label" font-size="12">Average</text>
  <text x="650" y="430" text-anchor="middle" class="branch-label" font-size="12">Wide</text>

  <!-- LEVEL 2 BRANCHES from right node -->
  <line x1="830" y1="380" x2="800" y2="470" stroke="#444444" stroke-width="1.5"/>
  <line x1="970" y1="380" x2="1000" y2="470" stroke="#444444" stroke-width="1.5"/>
  <text x="790" y="430" text-anchor="middle" class="branch-label" font-size="12">Narrow</text>
  <text x="1010" y="430" text-anchor="middle" class="branch-label" font-size="12">Wide</text>

  <!-- LEVEL 2 NODES: Opening Type -->
  <g transform="translate(80, 510)">
    <rect x="-70" y="-30" width="140" height="50" rx="6" fill="#2a2a2a" stroke="#444444" stroke-width="1"/>
    <text x="0" y="0" text-anchor="middle" class="decision-text" font-size="12">Opening Type?</text>
  </g>

  <g transform="translate(280, 510)">
    <rect x="-70" y="-30" width="140" height="50" rx="6" fill="#2a2a2a" stroke="#444444" stroke-width="1"/>
    <text x="0" y="0" text-anchor="middle" class="decision-text" font-size="12">Opening Type?</text>
  </g>

  <g transform="translate(440, 510)">
    <rect x="-70" y="-30" width="140" height="50" rx="6" fill="#2a2a2a" stroke="#444444" stroke-width="1"/>
    <text x="0" y="0" text-anchor="middle" class="decision-text" font-size="12">Opening Type?</text>
  </g>

  <g transform="translate(540, 510)">
    <rect x="-70" y="-30" width="140" height="50" rx="6" fill="#2a2a2a" stroke="#444444" stroke-width="1"/>
    <text x="0" y="0" text-anchor="middle" class="decision-text" font-size="12">Opening Type?</text>
  </g>

  <g transform="translate(640, 510)">
    <rect x="-70" y="-30" width="140" height="50" rx="6" fill="#2a2a2a" stroke="#444444" stroke-width="1"/>
    <text x="0" y="0" text-anchor="middle" class="decision-text" font-size="12">Opening Type?</text>
  </g>

  <g transform="translate(800, 510)">
    <rect x="-70" y="-30" width="140" height="50" rx="6" fill="#2a2a2a" stroke="#444444" stroke-width="1"/>
    <text x="0" y="0" text-anchor="middle" class="decision-text" font-size="12">Opening Type?</text>
  </g>

  <g transform="translate(1000, 510)">
    <rect x="-70" y="-30" width="140" height="50" rx="6" fill="#2a2a2a" stroke="#444444" stroke-width="1"/>
    <text x="0" y="0" text-anchor="middle" class="decision-text" font-size="12">Opening Type?</text>
  </g>

  <!-- LEVEL 3 BRANCHES and DAY TYPE LEAVES -->

  <!-- From 80 (Above VA, Narrow IB) -->
  <line x1="50" y1="530" x2="50" y2="620" stroke="#444444" stroke-width="1"/>
  <line x1="110" y1="530" x2="110" y2="620" stroke="#444444" stroke-width="1"/>
  <text x="50" y="580" text-anchor="middle" class="branch-label" font-size="10">OD/OTD</text>
  <text x="110" y="580" text-anchor="middle" class="branch-label" font-size="10">OA</text>

  <!-- Trend Day leaf -->
  <g transform="translate(50, 660)">
    <rect x="-45" y="-25" width="90" height="40" rx="6" fill="#00d4aa"/>
    <text x="0" y="-5" text-anchor="middle" class="day-type" font-size="12">Trend Day</text>
    <text x="0" y="10" text-anchor="middle" class="stat" font-size="10" fill="#1a1a1a">~10%</text>
  </g>

  <!-- Normal Variation leaf -->
  <g transform="translate(110, 660)">
    <rect x="-55" y="-25" width="110" height="40" rx="6" fill="#00d4aa"/>
    <text x="0" y="-5" text-anchor="middle" class="day-type" font-size="11">Normal Var</text>
    <text x="0" y="10" text-anchor="middle" class="stat" font-size="10" fill="#1a1a1a">~40%</text>
  </g>

  <!-- From 280 (Above VA, Wide IB) -->
  <line x1="250" y1="530" x2="250" y2="620" stroke="#444444" stroke-width="1"/>
  <line x1="310" y1="530" x2="310" y2="620" stroke="#444444" stroke-width="1"/>
  <text x="250" y="580" text-anchor="middle" class="branch-label" font-size="10">OD/OTD</text>
  <text x="310" y="580" text-anchor="middle" class="branch-label" font-size="10">OA</text>

  <!-- Normal Variation leaf -->
  <g transform="translate(250, 660)">
    <rect x="-55" y="-25" width="110" height="40" rx="6" fill="#00d4aa"/>
    <text x="0" y="-5" text-anchor="middle" class="day-type" font-size="11">Normal Var</text>
    <text x="0" y="10" text-anchor="middle" class="stat" font-size="10" fill="#1a1a1a">~40%</text>
  </g>

  <!-- Neutral Day leaf -->
  <g transform="translate(310, 660)">
    <rect x="-50" y="-25" width="100" height="40" rx="6" fill="#00d4aa"/>
    <text x="0" y="-5" text-anchor="middle" class="day-type" font-size="12">Neutral Day</text>
    <text x="0" y="10" text-anchor="middle" class="stat" font-size="10" fill="#1a1a1a">~20%</text>
  </g>

  <!-- From 440 (Inside VA, Narrow IB) -->
  <line x1="440" y1="530" x2="440" y2="620" stroke="#444444" stroke-width="1"/>
  <text x="440" y="580" text-anchor="middle" class="branch-label" font-size="10">OD/OTD</text>

  <!-- Trend Day leaf -->
  <g transform="translate(440, 660)">
    <rect x="-45" y="-25" width="90" height="40" rx="6" fill="#00d4aa"/>
    <text x="0" y="-5" text-anchor="middle" class="day-type" font-size="12">Trend Day</text>
    <text x="0" y="10" text-anchor="middle" class="stat" font-size="10" fill="#1a1a1a">~10%</text>
  </g>

  <!-- From 540 (Inside VA, Average IB) -->
  <line x1="510" y1="530" x2="510" y2="620" stroke="#444444" stroke-width="1"/>
  <line x1="570" y1="530" x2="570" y2="620" stroke="#444444" stroke-width="1"/>
  <text x="510" y="580" text-anchor="middle" class="branch-label" font-size="10">OD/OTD</text>
  <text x="570" y="580" text-anchor="middle" class="branch-label" font-size="10">OA</text>

  <!-- Normal Variation leaf -->
  <g transform="translate(510, 660)">
    <rect x="-55" y="-25" width="110" height="40" rx="6" fill="#00d4aa"/>
    <text x="0" y="-5" text-anchor="middle" class="day-type" font-size="11">Normal Var</text>
    <text x="0" y="10" text-anchor="middle" class="stat" font-size="10" fill="#1a1a1a">~40%</text>
  </g>

  <!-- Neutral Day leaf -->
  <g transform="translate(570, 660)">
    <rect x="-50" y="-25" width="100" height="40" rx="6" fill="#00d4aa"/>
    <text x="0" y="-5" text-anchor="middle" class="day-type" font-size="12">Neutral Day</text>
    <text x="0" y="10" text-anchor="middle" class="stat" font-size="10" fill="#1a1a1a">~20%</text>
  </g>

  <!-- From 640 (Inside VA, Wide IB) -->
  <line x1="610" y1="530" x2="610" y2="620" stroke="#444444" stroke-width="1"/>
  <line x1="670" y1="530" x2="670" y2="620" stroke="#444444" stroke-width="1"/>
  <text x="610" y="580" text-anchor="middle" class="branch-label" font-size="10">OD/OTD</text>
  <text x="670" y="580" text-anchor="middle" class="branch-label" font-size="10">OA</text>

  <!-- Normal Day leaf -->
  <g transform="translate(610, 660)">
    <rect x="-50" y="-25" width="100" height="40" rx="6" fill="#00d4aa"/>
    <text x="0" y="-5" text-anchor="middle" class="day-type" font-size="12">Normal Day</text>
    <text x="0" y="10" text-anchor="middle" class="stat" font-size="10" fill="#1a1a1a">~5%</text>
  </g>

  <!-- Neutral Day leaf -->
  <g transform="translate(670, 660)">
    <rect x="-50" y="-25" width="100" height="40" rx="6" fill="#00d4aa"/>
    <text x="0" y="-5" text-anchor="middle" class="day-type" font-size="12">Neutral Day</text>
    <text x="0" y="10" text-anchor="middle" class="stat" font-size="10" fill="#1a1a1a">~20%</text>
  </g>

  <!-- From 800 (Below VA, Narrow IB) -->
  <line x1="770" y1="530" x2="770" y2="620" stroke="#444444" stroke-width="1"/>
  <line x1="830" y1="530" x2="830" y2="620" stroke="#444444" stroke-width="1"/>
  <text x="770" y="580" text-anchor="middle" class="branch-label" font-size="10">OD/OTD</text>
  <text x="830" y="580" text-anchor="middle" class="branch-label" font-size="10">OA</text>

  <!-- Trend Day leaf -->
  <g transform="translate(770, 660)">
    <rect x="-45" y="-25" width="90" height="40" rx="6" fill="#00d4aa"/>
    <text x="0" y="-5" text-anchor="middle" class="day-type" font-size="12">Trend Day</text>
    <text x="0" y="10" text-anchor="middle" class="stat" font-size="10" fill="#1a1a1a">~10%</text>
  </g>

  <!-- Normal Variation leaf -->
  <g transform="translate(830, 660)">
    <rect x="-55" y="-25" width="110" height="40" rx="6" fill="#00d4aa"/>
    <text x="0" y="-5" text-anchor="middle" class="day-type" font-size="11">Normal Var</text>
    <text x="0" y="10" text-anchor="middle" class="stat" font-size="10" fill="#1a1a1a">~40%</text>
  </g>

  <!-- From 1000 (Below VA, Wide IB) -->
  <line x1="970" y1="530" x2="970" y2="620" stroke="#444444" stroke-width="1"/>
  <line x1="1030" y1="530" x2="1030" y2="620" stroke="#444444" stroke-width="1"/>
  <text x="970" y="580" text-anchor="middle" class="branch-label" font-size="10">OD/OTD</text>
  <text x="1030" y="580" text-anchor="middle" class="branch-label" font-size="10">OA</text>

  <!-- Normal Variation leaf -->
  <g transform="translate(970, 660)">
    <rect x="-55" y="-25" width="110" height="40" rx="6" fill="#00d4aa"/>
    <text x="0" y="-5" text-anchor="middle" class="day-type" font-size="11">Normal Var</text>
    <text x="0" y="10" text-anchor="middle" class="stat" font-size="10" fill="#1a1a1a">~40%</text>
  </g>

  <!-- Neutral Day leaf -->
  <g transform="translate(1030, 660)">
    <rect x="-50" y="-25" width="100" height="40" rx="6" fill="#00d4aa"/>
    <text x="0" y="-5" text-anchor="middle" class="day-type" font-size="12">Neutral Day</text>
    <text x="0" y="10" text-anchor="middle" class="stat" font-size="10" fill="#1a1a1a">~20%</text>
  </g>

  <!-- DAY TYPE SUMMARY CARDS -->
  <g transform="translate(80, 780)">
    <rect width="920" height="520" rx="12" fill="#242424"/>
    <text x="460" y="45" text-anchor="middle" class="title" font-size="28">Day Type Reference</text>

    <!-- Trend Day -->
    <g transform="translate(40, 80)">
      <rect width="200" height="180" rx="8" fill="#00d4aa" opacity="0.15"/>
      <rect x="0" y="0" width="200" height="40" rx="8" fill="#00d4aa"/>
      <text x="100" y="27" text-anchor="middle" class="day-type" font-size="16">Trend Day</text>
      <text x="100" y="65" text-anchor="middle" class="stat" font-size="14" fill="#00d4aa">~10% of sessions</text>
      <text x="100" y="95" text-anchor="middle" class="decision-text" font-size="13">Narrow IB</text>
      <text x="100" y="115" text-anchor="middle" class="decision-text" font-size="13">Open Drive/OTD</text>
      <text x="100" y="135" text-anchor="middle" class="decision-text" font-size="13">IB breakout + acceptance</text>
      <text x="100" y="165" text-anchor="middle" class="decision-text" font-size="12" fill="#00d4aa">Strategy: Follow breakout</text>
    </g>

    <!-- Normal Day -->
    <g transform="translate(260, 80)">
      <rect width="200" height="180" rx="8" fill="#00d4aa" opacity="0.15"/>
      <rect x="0" y="0" width="200" height="40" rx="8" fill="#00d4aa"/>
      <text x="100" y="27" text-anchor="middle" class="day-type" font-size="16">Normal Day</text>
      <text x="100" y="65" text-anchor="middle" class="stat" font-size="14" fill="#00d4aa">~5% of sessions</text>
      <text x="100" y="95" text-anchor="middle" class="decision-text" font-size="13">Wide IB</text>
      <text x="100" y="115" text-anchor="middle" class="decision-text" font-size="13">Open Auction</text>
      <text x="100" y="135" text-anchor="middle" class="decision-text" font-size="13">Failed extension attempt</text>
      <text x="100" y="165" text-anchor="middle" class="decision-text" font-size="12" fill="#00d4aa">Strategy: Fade IB extremes</text>
    </g>

    <!-- Normal Variation Day -->
    <g transform="translate(480, 80)">
      <rect width="200" height="180" rx="8" fill="#00d4aa" opacity="0.15"/>
      <rect x="0" y="0" width="200" height="40" rx="8" fill="#00d4aa"/>
      <text x="100" y="27" text-anchor="middle" class="day-type" font-size="14">Normal Variation</text>
      <text x="100" y="65" text-anchor="middle" class="stat" font-size="14" fill="#00d4aa">~40% of sessions</text>
      <text x="100" y="95" text-anchor="middle" class="decision-text" font-size="13">Average IB</text>
      <text x="100" y="115" text-anchor="middle" class="decision-text" font-size="13">Breakout accepted</text>
      <text x="100" y="135" text-anchor="middle" class="decision-text" font-size="13">1x to 1.5x extension</text>
      <text x="100" y="165" text-anchor="middle" class="decision-text" font-size="12" fill="#00d4aa">Strategy: Trade to 1x, rotate</text>
    </g>

    <!-- Neutral Day -->
    <g transform="translate(700, 80)">
      <rect width="200" height="180" rx="8" fill="#00d4aa" opacity="0.15"/>
      <rect x="0" y="0" width="200" height="40" rx="8" fill="#00d4aa"/>
      <text x="100" y="27" text-anchor="middle" class="day-type" font-size="16">Neutral Day</text>
      <text x="100" y="65" text-anchor="middle" class="stat" font-size="14" fill="#00d4aa">~20% of sessions</text>
      <text x="100" y="95" text-anchor="middle" class="decision-text" font-size="13">Very wide IB</text>
      <text x="100" y="115" text-anchor="middle" class="decision-text" font-size="13">Open Auction</text>
      <text x="100" y="135" text-anchor="middle" class="decision-text" font-size="13">No acceptance either side</text>
      <text x="100" y="165" text-anchor="middle" class="decision-text" font-size="12" fill="#00d4aa">Strategy: Fade both extremes</text>
    </g>

    <!-- Double Distribution -->
    <g transform="translate(260, 280)">
      <rect width="420" height="110" rx="8" fill="#00d4aa" opacity="0.15"/>
      <rect x="0" y="0" width="420" height="40" rx="8" fill="#00d4aa"/>
      <text x="210" y="27" text-anchor="middle" class="day-type" font-size="16">Double Distribution Trend Day</text>
      <text x="210" y="65" text-anchor="middle" class="stat" font-size="14" fill="#00d4aa">~2-4% of sessions</text>
      <text x="210" y="90" text-anchor="middle" class="decision-text" font-size="13">Narrow IB → 1x extension → secondary balance zone → second trending leg</text>
    </g>

    <!-- Legend -->
    <g transform="translate(40, 410)">
      <text x="0" y="0" class="decision-text" font-size="14" fill="#888888">Opening Types:</text>
      <text x="0" y="25" class="branch-label" font-size="13">OD</text>
      <text x="30" y="25" class="decision-text" font-size="13">= Open Drive (immediate directional commitment)</text>
      <text x="0" y="50" class="branch-label" font-size="13">OTD</text>
      <text x="35" y="50" class="decision-text" font-size="13">= Open Test Drive (liquidity grab then drive)</text>
      <text x="0" y="75" class="branch-label" font-size="13">OA</text>
      <text x="30" y="75" class="decision-text" font-size="13">= Open Auction (balanced rotation, no commitment)</text>
    </g>
  </g>

  <!-- Key Insight -->
  <g transform="translate(80, 1340)">
    <rect width="920" height="200" rx="12" fill="#242424"/>
    <text x="460" y="45" text-anchor="middle" class="branch-label" font-size="22">Key Insight</text>
    <text x="460" y="85" text-anchor="middle" class="decision-text" font-size="16">Professional traders do not trade every day the same way.</text>
    <text x="460" y="115" text-anchor="middle" class="decision-text" font-size="16">Day type determines which playbook to execute.</text>
    <text x="460" y="160" text-anchor="middle" class="decision-text" font-size="14" fill="#888888">By 10:30 AM, use IB width + opening type to identify the probable day type.</text>
    <text x="460" y="185" text-anchor="middle" class="decision-text" font-size="14" fill="#888888">Update as session develops based on extension acceptance and profile shape.</text>
  </g>

  <!-- IB Percentile Reference -->
  <g transform="translate(80, 1560)">
    <rect width="920" height="120" rx="12" fill="#1e1e1e"/>
    <text x="460" y="35" text-anchor="middle" class="decision-text" font-size="14" fill="#888888">IB Width Reference (compare to 20-day average)</text>
    <text x="153" y="75" text-anchor="middle" class="branch-label" font-size="14">Narrow</text>
    <text x="153" y="95" text-anchor="middle" class="decision-text" font-size="12">Bottom 25%</text>
    <text x="460" y="75" text-anchor="middle" class="branch-label" font-size="14">Average</text>
    <text x="460" y="95" text-anchor="middle" class="decision-text" font-size="12">40-60 percentile</text>
    <text x="767" y="75" text-anchor="middle" class="branch-label" font-size="14">Wide</text>
    <text x="767" y="95" text-anchor="middle" class="decision-text" font-size="12">Top 25-30%</text>

    <!-- Divider lines -->
    <line x1="306" y1="55" x2="306" y2="105" stroke="#444444" stroke-width="1"/>
    <line x1="614" y1="55" x2="614" y2="105" stroke="#444444" stroke-width="1"/>
  </g>

  <!-- Timing note -->
  <g transform="translate(80, 1700)">
    <rect width="920" height="60" rx="8" fill="#00d4aa" opacity="0.1"/>
    <text x="460" y="38" text-anchor="middle" class="decision-text" font-size="15" fill="#00d4aa">Identify opening type by 9:50 AM • Classify day type by 10:30 AM • Confirm by 12:00 PM profile shape</text>
  </g>

  <!-- Footer -->
  <rect x="0" y="1860" width="1080" height="60" fill="#141414"/>
  <text x="540" y="1898" text-anchor="middle" class="footer">Auction Mentor | academy.auctionmentor.io</text>
</svg>
